<svg width="36" height="36" viewBox="0 0 36 36" fill="none" xmlns="http://www.w3.org/2000/svg">
<g id="thumbs-down">
<path id="Rectangle_9_copy" fill-rule="evenodd" clip-rule="evenodd" d="M28.36 20.0084C24 26.0806 22.4531 27.8113 22.7112 31.3263C22.9694 34.8412 22.2309 35.8077 20.4742 35.9808C18.7174 36.1539 15.4189 35.2477 14.8398 29.4944C14.5899 27.0052 16.469 22.1047 16.469 22.1047L3.32013 22.0979C1.45847 22.0979 0 21.3443 0 18.9427C0 16.6927 2.62998 16.016 2.62998 16.016C1.58713 15.5719 0.925049 14.5826 0.947285 13.5015C0.940983 11.9763 2.23849 10.7323 3.85189 10.7168C2.74825 10.2975 2.11782 9.19387 2.35228 8.09151C2.5524 6.7703 3.63399 5.72344 5.02649 5.50318C4.11464 4.89331 3.73759 3.78796 4.1008 2.78941C4.69118 1.47093 6.24942 0.0172997 9.74955 0.0172997H26.1003C27.0734 -0.0991287 28.0177 0.38018 28.4526 1.21132L28.4526 19.2733C28.4593 19.5213 28.4282 19.7688 28.36 20.0084ZM36 21.1693H29.6035L29.6035 0.0211906H36L36 21.1693Z" fill="white"/>
</g>
</svg>
