<svg width="26" height="23" viewBox="0 0 26 23" fill="none" xmlns="http://www.w3.org/2000/svg">
<path d="M23.3287 6.20426C23.3391 6.43317 23.3391 6.66204 23.3391 6.89096C23.3383 12.4347 20.3158 17.5372 15.4545 20.2019C10.5932 22.8665 4.66592 22.6695 -0.0078125 19.6881C0.413373 19.7385 0.837282 19.7629 1.26148 19.7609C3.66501 19.7639 5.99956 18.9576 7.88895 17.472C5.60636 17.4309 3.60293 15.9419 2.90535 13.7681C3.70323 13.9191 4.52499 13.8871 5.30871 13.6745C2.82173 13.1663 1.03489 10.9795 1.03261 8.44116V8.36833C1.77385 8.77647 2.60069 9.00458 3.44635 9.03423C1.10575 7.46383 0.382573 4.34822 1.7921 1.90736C4.50134 5.24138 8.49869 7.26842 12.7893 7.48398C12.7021 7.08401 12.6568 6.67606 12.654 6.26671C12.6537 4.07708 13.9909 2.10941 16.0269 1.30372C18.0629 0.498033 20.3845 1.01784 21.8825 2.61482C23.0788 2.38272 24.2262 1.94631 25.2743 1.32472C24.8743 2.56192 24.0387 3.61185 22.9229 4.27949C23.982 4.15154 25.0163 3.86755 25.9922 3.43675C25.2757 4.51007 24.3738 5.44721 23.3287 6.20426Z" fill="#262626"/>
</svg>
